<?xml version="1.0" encoding="UTF-8"?>
<!DOCTYPE svg PUBLIC "-//W3C//DTD SVG 1.1//EN" "http://www.w3.org/Graphics/SVG/1.1/DTD/svg11.dtd">
<!-- Creator: CorelDRAW 2019 (64-Bit) -->
<svg xmlns="http://www.w3.org/2000/svg" xml:space="preserve" width="297mm" height="210mm" version="1.1" style="shape-rendering:geometricPrecision; text-rendering:geometricPrecision; image-rendering:optimizeQuality; fill-rule:evenodd; clip-rule:evenodd"
viewBox="0 0 29700 21000"
 xmlns:xlink="http://www.w3.org/1999/xlink"
 xmlns:dc="http://purl.org/dc/elements/1.1/"
 xmlns:cc="http://creativecommons.org/ns#"
 xmlns:rdf="http://www.w3.org/1999/02/22-rdf-syntax-ns#"
 xmlns:svg="http://www.w3.org/2000/svg"
 xmlns:sodipodi="http://sodipodi.sourceforge.net/DTD/sodipodi-0.dtd"
 xmlns:inkscape="http://www.inkscape.org/namespaces/inkscape"
 sodipodi:docname="logo_bec.svg"
 inkscape:version="1.0.2-2 (e86c870879, 2021-01-15)">
 <defs>
  <style type="text/css">
   <![CDATA[
    .str0 {stroke:#2B2A29;stroke-width:20;stroke-miterlimit:22.9256}
    .fil0 {fill:none}
    .fil1 {fill:black}
   ]]>
  </style>
 </defs>
 <g id="Layer_x0020_1">
  <metadata id="CorelCorpID_0Corel-Layer"/>
  <rect class="fil0 str0" x="-0.53" y="7.13" width="29700" height="21000"/>
  <sodipodi:namedview pagecolor="#ffffff" bordercolor="#666666" borderopacity="1" objecttolerance="10" gridtolerance="10" guidetolerance="10" inkscape:pageopacity="0" inkscape:pageshadow="2" inkscape:window-width="820" inkscape:window-height="480" id="namedview13" showgrid="false" inkscape:zoom="1.0927209" inkscape:cx="467.64001" inkscape:cy="222.77" inkscape:window-x="0" inkscape:window-y="0" inkscape:window-maximized="0" inkscape:current-layer="Capa_1"/>
  <g id="_2083278403520">
   <path id="path2" class="fil1" d="M-0.53 4270.04c0,734.05 0,1468.45 0,2202.49 2170.15,0 4340.3,0 6510.8,0 47.81,-2.07 95.29,-4.47 143.1,-6.54 90.82,1.38 221.52,11.35 371.49,52.98 114.55,31.98 394.88,113.85 623.64,358.08 281.02,300.63 313.7,665.6 331.59,868.89 13.76,156.51 32.68,367.37 -59.85,617.09 -152.04,411.06 -486.73,607.46 -563.78,650.11 -188.16,103.89 -362.9,133.12 -597.15,172.34 -190.57,31.98 -351.55,39.21 -464.38,39.9 -2076.23,0 -4152.83,0 -6229.06,0 0,731.98 0,1463.97 0,2195.95 2111.67,0 4223.68,0 6335.35,0 39.91,0 80.16,0 120.05,0 132.09,-5.5 341.9,1.03 583.04,79.46 105.6,34.4 416.2,147.56 696.56,444.41 78.77,83.59 242.16,260.06 345.01,543.82 49.88,137.94 160.64,507.36 26.49,942.15 -129.33,419.31 -409.68,651.84 -530.75,749.52 0,0 -354.3,285.85 -922.21,384.91 -195.37,34.06 -411.39,39.91 -411.39,39.91 -64.67,1.71 -119.36,1.03 -159.27,0 -2029.8,0 -4059.96,0 -6089.76,0 0,751.94 0,1503.86 0,2256.14 2410.24,0 4820.49,0 7230.73,0 108.36,0 216.7,0 325.06,0 110.07,0 265.89,-4.81 450.95,-27.18 304.77,-36.12 771.53,-96.31 1273.74,-384.91 459.9,-264.17 749.87,-605.05 908.79,-829.33 299.25,-422.75 403.49,-812.47 470.89,-1074.59 159.27,-618.81 117.64,-1118.95 92.87,-1386.58 -38.86,-423.43 -76.7,-832.07 -325.05,-1300.23 0,0 -389.72,-734.4 -1147.51,-1147.51 -272.77,-148.6 -555.53,-234.59 -580.28,-242.16 -233.9,-69.82 -442.36,-100.43 -544.18,-114.88 -57.44,-8.26 -105.95,-13.76 -139.99,-17.54 50.22,-2.76 120.05,-7.91 202.94,-16.85 91.16,-9.98 389.05,-44.37 680.05,-139.32 125.21,-40.94 468.49,-156.17 795.96,-427.91 383.2,-317.84 549.34,-687.95 673.17,-971.73 65.71,-150.66 302.35,-724.08 278.62,-1512.48 -10.66,-358.08 -28.2,-941.81 -397.98,-1552.36 -382.84,-631.88 -920.48,-925.3 -1193.94,-1074.59 -166.14,-90.81 -518.38,-278.62 -1008.19,-345.01 -28.9,-3.79 -52.63,-6.55 -68.11,-8.26 -2679.24,-6.15 -5358.82,-12 -8038.06,-18.19z"/>
   <rect id="rect4" class="fil1" x="10746" y="4270.04" width="8637.26" height="2215.56"/>
   <rect id="rect6" class="fil1" x="10746" y="9205.41" width="6683.47" height="2215.56"/>
   <rect id="rect8" class="fil1" x="10746" y="14645.76" width="8637.26" height="2215.56"/>
   <path id="path10" class="fil1" d="M27091.78 8349.95c849.28,-30.96 1698.21,-61.92 2547.49,-92.87 0,-77.39 -3.45,-190.22 -19.95,-325.05 -39.91,-326.43 -145.84,-629.47 -267.62,-950.76 -199.16,-526.28 -345.35,-747.47 -476.75,-956.26 -59.85,-94.93 -319.89,-499.12 -821.08,-932.17 -180.23,-155.82 -673.5,-557.6 -1426.13,-842.41 -770.17,-291.68 -1400.33,-305.1 -2029.8,-318.52 -506.69,-10.67 -1151.98,-19.61 -1956.88,205.69 -313.71,87.72 -867.52,247.66 -1485.99,656.65 -663.19,438.92 -1045,929.42 -1247.26,1193.95 -461.61,604.03 -682.8,1145.79 -829.33,1512.47 -305.44,763.97 -403.83,1385.53 -477.78,1870.89 -85.3,561.03 -182.3,1198.42 -92.86,2043.23 19.6,184.37 99.4,866.48 411.39,1704.75 125.9,339.16 360.14,954.88 862.35,1645.25 225.31,309.23 605.05,822.45 1273.74,1300.23 130.38,93.22 722.36,507.02 1618.77,776.01 159.26,47.81 857.18,250.06 1804.49,245.6 358.42,-1.71 1030.9,-10.32 1850.93,-278.62 302.71,-99.07 833.46,-277.59 1413.07,-703.08 438.91,-322.31 726.83,-654.94 875.77,-842.4 263.48,-332.63 412.42,-617.1 537.29,-855.81 129.68,-248.01 332.28,-635.33 404.52,-988.58 0.69,-2.76 42.31,-167.17 112.83,-519.07 11.01,-55.38 23.04,-120.73 26.49,-177.49 -882.3,-44.37 -1764.61,-88.4 -2646.9,-132.78 -2.07,63.64 -8.6,153.08 -26.49,258.68 -19.26,111.78 -71.9,361.17 -265.2,703.08 -147.23,260.74 -340.19,601.96 -736.45,888.84 -439.27,318.17 -876.8,386.97 -1134.45,424.46 -544.17,79.11 -970.35,-19.26 -1220.76,-79.46 -213.27,-51.26 -477.44,-117.31 -782.89,-292.04 -409.68,-234.26 -643.58,-521.81 -829.33,-749.52 -98.39,-120.74 -356.02,-451.98 -570.66,-948.69 -202.94,-469.54 -263.84,-847.9 -325.06,-1227.31 -98.72,-611.93 -94.94,-1116.89 -79.46,-1426.13 36.12,-735.07 182.3,-1275.13 218.76,-1406.52 109.74,-392.83 227.38,-801.12 530.76,-1260.33 276.21,-418.27 561.02,-658.03 623.63,-709.96 345.02,-285.5 669.72,-422.06 795.97,-470.9 397.98,-154.44 726.14,-177.83 961.76,-192.28 284.12,-17.89 716.5,-40.58 1233.85,132.78 467.47,156.5 764.32,392.47 835.86,450.95 285.85,233.9 438.58,466.78 470.9,517.35 163.05,254.2 229.43,479.84 245.61,537.29 44.02,157.89 63.63,311.3 72.92,384.91 11.33,91.8 16.83,169.19 19.93,225.95z"/>
  </g>
 </g>
</svg>
