<?xml version="1.0" encoding="UTF-8"?>
<!DOCTYPE svg PUBLIC "-//W3C//DTD SVG 1.1//EN" "http://www.w3.org/Graphics/SVG/1.1/DTD/svg11.dtd">
<!-- Creator: CorelDRAW 2019 (64-Bit) -->
<svg xmlns="http://www.w3.org/2000/svg" xml:space="preserve" width="148mm" height="105mm" version="1.1" style="shape-rendering:geometricPrecision; text-rendering:geometricPrecision; image-rendering:optimizeQuality; fill-rule:evenodd; clip-rule:evenodd"
viewBox="0 0 14800 10500"
 xmlns:xlink="http://www.w3.org/1999/xlink">
 <defs>
  <style type="text/css">
   <![CDATA[
    .fil0 {fill:#4FC646}
   ]]>
  </style>
 </defs>
 <g id="Layer_x0020_1">
  <metadata id="CorelCorpID_0Corel-Layer"/>
  <g id="objects">
   <path class="fil0" d="M2868.14 3839.83c152.53,-227.06 333.1,-434.8 526.11,-629.32 96.85,-97.06 196.99,-191.09 301.63,-280.04 51.51,-45.47 105.43,-88.03 158.84,-131.33 54.5,-41.83 108.76,-84.11 164.63,-124.18 445.54,-322.16 943.61,-577.54 1474.47,-736.61 265.21,-79.55 537.68,-135.74 813.07,-168.79 275.64,-32.93 552.51,-44.61 833.5,-29.19 279.75,20.96 556.71,76.74 823.88,161.8 268.14,83.43 522.84,202.48 767.51,335.2 244.68,133.3 478.95,283.55 703.84,443.87 225.44,159.69 444.74,326.55 660.32,495.5 216.07,168.41 429.18,338.91 644.22,504.84 215.34,165.22 433.23,325.24 656.31,475.3 223.72,148.8 454.22,284.47 691.65,403.45l179.68 85.21c60.81,25.98 122.27,50.1 183.32,75.32 60.54,26.73 123.68,45.6 185.87,67.11 62.36,21.07 124.3,43.54 188.27,58.59 251.93,75.71 512.69,112.5 773.31,131.91l196.18 9.27 196.62 -5.1 98.27 -2.87 98.07 -10.06 196.12 -19.79 320.55 -32.39 -155.7 275.25c-41.35,73.13 -81.12,138 -123.41,205.08 -41.73,66.53 -84.52,132 -128.21,196.84 -86.79,130.07 -177.88,256.76 -270.95,381.98 -187.04,249.73 -385.33,490.86 -595.1,722.13 -420.08,461.35 -882.54,888.75 -1397.72,1249.06 -127.06,92.31 -260.76,175.48 -393.48,259.83l-203.71 119.47c-67.72,40.15 -138.87,74.52 -208.17,112.02 -280.08,144.4 -569.56,273.68 -870.55,372.15l-112.2 38.77 -114.18 32.68c-76.34,21.05 -151.95,44.81 -228.94,63.48 -154.77,34.13 -308.78,72.23 -466.19,93.44l-117.47 18.77c-19.62,2.93 -39.12,6.7 -58.79,8.9l-59.2 5.8 -236.84 22.95c-39.42,4.84 -79.11,5.11 -118.74,6.62l-118.88 4.01c-79.29,2.19 -158.5,7.02 -237.89,3.65 -317.32,-4.1 -635.38,-36.13 -947.75,-98.82 -312.03,-63.62 -618.86,-155.31 -912.46,-277.28 -293.91,-121.12 -576.22,-267.69 -844.79,-433.52 -267.92,-166.9 -522.92,-351.56 -766.69,-547.34 -487.27,-392.26 -928.8,-828.54 -1369.78,-1249.84l-165.9 -156.79 -83.08 -77.61c-14.19,-13.64 -27.26,-24.87 -40.11,-35.7l-38.86 -33.43c-105.24,-87.19 -222.6,-159.72 -347.88,-214.83 -250.45,-110.64 -532.54,-150.01 -804.53,-111.88 -136.66,18.87 -267.91,56.64 -396.89,112.03 -134.24,58 -265.03,124.35 -391.61,198.07 -126.14,74.45 -248.43,155.77 -364.57,244.78 -58.03,44.48 -114.74,90.67 -169.48,138.58 -13.77,11.92 -27.31,24.01 -40.66,36.27 -8.42,7.55 -38.91,36.17 -66.46,53.09 -56.77,36.4 -123.38,57.73 -190.44,59.92 -134.65,6.58 -269.89,-65.57 -338.48,-181.1 -71.13,-114.77 -74.52,-266.14 -6.79,-383.12 7.74,-14.95 17.9,-28.27 27.34,-42.04l15.91 -19.23 8.14 -9.45 5.29 -5.68 39.81 -42.28 79.81 -84.48c55.06,-55.68 107.77,-112.79 165.19,-166.82 224.46,-219.77 467.91,-423.62 728.01,-602.64 519.97,-360.9 1107.28,-611.05 1709.01,-780.03 603.92,-166.89 1225.96,-242.37 1845.53,-266.67 623,-18.85 1254.32,45.41 1851.37,231.04 298.56,90.99 587.63,208.57 867.19,341.81 279.83,133.07 549.61,282.69 817.39,432.25 267.78,149.69 534.09,299.28 807.22,433.69 272.94,134.58 554.98,250.24 848.01,330.61 292.65,80.83 595.23,127.14 900.11,136.97 304.99,9.93 611.33,-16.61 913.64,-67.89 -299.75,64.16 -605.84,104.13 -914.06,107.36 -38.49,0.17 -77.09,2.12 -115.62,0.85l-115.55 -5.21c-38.5,-2.2 -77.23,-2.42 -115.62,-6.27l-115.2 -12.14c-77.1,-6.58 -153.15,-20.43 -229.42,-33.39 -76.71,-10.97 -151.53,-30.73 -227.17,-47.16 -301.41,-71.21 -593.37,-179.03 -874.93,-305.65 -282.24,-125.68 -554.79,-269.57 -826.59,-410.98 -271.77,-141.49 -542.98,-281.56 -820.83,-403.74 -277.54,-122.66 -561.6,-227.57 -851.92,-307.92 -580.01,-165.7 -1186.52,-212.98 -1787.3,-181.19l-452.41 38.21c-37.78,2.44 -75.24,7.48 -112.6,13.1l-112.19 15.76 -224.3 31.43 -56.04 8 -55.46 11.03 -110.92 21.76 -221.8 43.15c-73.62,15.55 -145.87,36.46 -218.87,54.38 -72.6,19.33 -146.12,35.6 -217.89,57.4 -574.5,171.94 -1126.72,418.73 -1610.04,766.41 -242.15,172.77 -467.36,367.6 -677.57,580.29 -53.4,52 -103.92,108.39 -156.25,162.11l-77.28 83.45 -38.6 41.83 -4.46 4.88 -1.07 1.58c-0.76,1.03 -1.62,1.96 -2.54,2.85 -0.76,2.41 -3.09,3.89 -3.68,6.29 -9.73,16.39 -8.04,39.71 2.16,55.17 10.43,16.8 29.7,26.01 48.52,24.74 9.58,-0.32 18.4,-3.82 26.03,-8.76 -2.54,3.88 39.6,-36.27 67.1,-60.42 60.07,-53.68 121.82,-104.99 184.94,-154.4 126.28,-98.77 258.83,-188.88 395.88,-271.65 137.54,-81.97 279.88,-156.04 426.44,-221.11 151.92,-67.37 317.09,-117.22 483.98,-141.66 334.66,-50.38 683.11,-5.61 994.92,128.32 155.96,66.7 302.71,155.34 434.59,262.38l48.72 41.06c16.52,13.81 32.55,27.52 46.15,40.33l85.76 78.53 168.96 158.48c446.75,424.23 880.86,849.59 1350.94,1225.29 234.91,187.36 478.14,362.02 731.23,518.59 253.66,155.42 517.81,291.24 791.22,402.87 273.11,112.46 556.91,196 845.61,253.92 288.71,58.26 583.05,89.49 878.7,94.13 73.86,3.56 147.83,-1.01 221.75,-2.78l110.91 -3.33c36.95,-1.27 74.04,-1.22 110.78,-5.75l220.93 -20.72 55.26 -5.11c18.37,-1.96 36.57,-5.49 54.87,-8.17l109.65 -17.23c146.9,-19.01 290.82,-54.57 435.55,-85.67 72.01,-17.21 142.82,-39.42 214.32,-58.78l107 -30.11 105.25 -36.09c282.38,-91.13 555.11,-212 820.08,-347.43 65.59,-35.3 132.89,-67.27 197.11,-105.19l193.38 -112.53c126.16,-79.74 253.4,-158.08 374.7,-245.72 491.07,-341.6 941.43,-744.58 1350.29,-1186.21 204.45,-220.94 398.38,-452.04 581.4,-691.32 91.02,-119.97 180.21,-241.42 264.87,-365.61 42.58,-61.89 84.32,-124.37 124.71,-187.32 40.15,-62.2 81.02,-127.8 115.74,-187.77l164.86 242.87 -211.87 19.45 -105.9 9.6 -106.58 2.25c-71.05,1.09 -142.09,2.94 -213.14,3.2l-213.14 -12.05c-283.19,-23.6 -566.12,-70.46 -836.93,-155.98 -68.88,-17.67 -135.15,-42.72 -201.87,-66.46 -66.51,-24.19 -134.05,-45.94 -198.26,-75.36 -64.82,-27.93 -130.1,-54.94 -194.41,-83.73l-189.16 -93.52c-249.07,-129.94 -487.76,-276.16 -716.57,-433.82 -456.42,-317.23 -878.79,-670.19 -1300.07,-1015.79 -210.65,-173.04 -422.69,-342.09 -639.58,-503.35 -216.38,-161.95 -439.83,-312.33 -672.04,-445.83 -232.18,-132.93 -472.59,-252.09 -724.9,-336.82 -251.68,-85.63 -511.54,-147.05 -776.53,-174.6 -264.3,-22.22 -535.36,-19.23 -803.13,5.02 -268.02,24.21 -534.28,71.03 -794.78,140.93 -521.51,138.66 -1018.99,369.51 -1469.61,672.27 -112.43,76.03 -222.53,155.81 -329.13,240.23 -107.28,83.58 -210.48,172.5 -310.69,264.71 -199.89,184.91 -388.48,383.9 -550.47,604.12z"/>
  </g>
 </g>
</svg>
