<?xml version="1.0" encoding="UTF-8"?>
<!DOCTYPE svg PUBLIC "-//W3C//DTD SVG 1.1//EN" "http://www.w3.org/Graphics/SVG/1.1/DTD/svg11.dtd">
<!-- Creator: CorelDRAW 2019 (64-Bit) -->
<svg xmlns="http://www.w3.org/2000/svg" xml:space="preserve" width="148mm" height="76mm" version="1.1" style="shape-rendering:geometricPrecision; text-rendering:geometricPrecision; image-rendering:optimizeQuality; fill-rule:evenodd; clip-rule:evenodd"
viewBox="0 0 14800 7600"
 xmlns:xlink="http://www.w3.org/1999/xlink">
 <defs>
  <style type="text/css">
   <![CDATA[
    .fil0 {fill:#4FC646}
   ]]>
  </style>
 </defs>
 <g id="Layer_x0020_1">
  <metadata id="CorelCorpID_0Corel-Layer"/>
  <path class="fil0" d="M2846.13 2179.75c154.36,-225.83 336.6,-432.11 531.17,-625.07 97.63,-96.27 198.52,-189.49 303.88,-277.59 51.88,-45.06 106.14,-87.18 159.89,-130.05 54.84,-41.38 109.44,-83.23 165.63,-122.85 448.12,-318.56 948.24,-569.91 1480.36,-724.7 265.84,-77.41 538.75,-131.4 814.41,-162.23 275.89,-30.71 552.84,-40.16 833.7,-22.47 279.57,23.22 556.07,81.23 822.55,168.43 267.45,85.59 521.19,206.7 764.78,341.38 243.6,135.27 476.65,287.4 700.24,449.53 224.15,161.5 442.09,330.12 656.31,500.81 214.7,170.14 426.43,342.36 640.12,510.01 214.01,166.95 430.6,328.72 652.46,480.58 222.52,150.6 451.92,288.12 688.37,409.01l179 86.66c60.6,26.46 121.86,51.08 182.71,76.79 60.32,27.21 123.3,46.59 185.32,68.6 62.18,21.58 123.94,44.55 187.79,60.11 251.31,77.74 511.77,116.63 772.22,138.14l196.1 10.85 196.65 -3.51 98.3 -2.08 98.14 -9.27 196.27 -18.21 320.8 -29.8 -157.91 273.98c-41.94,72.79 -82.23,137.34 -125.05,204.08 -42.27,66.19 -85.59,131.31 -129.8,195.8 -87.84,129.37 -179.94,255.32 -274.02,379.79 -189.04,248.21 -389.28,487.73 -600.9,717.3 -423.79,457.95 -889.67,881.61 -1407.75,1237.76 -127.8,91.28 -262.16,173.37 -395.56,256.64l-204.66 117.83c-68.04,39.6 -139.47,73.4 -209.07,110.34 -281.23,142.14 -571.75,269.08 -873.52,365.12l-112.5 37.86 -114.45 31.76c-76.5,20.44 -152.31,43.59 -229.45,61.64 -155.04,32.87 -309.34,69.74 -466.92,89.67l-117.62 17.83c-19.64,2.77 -39.17,6.38 -58.86,8.42l-59.24 5.33 -237.02 21.04c-39.46,4.52 -79.15,4.47 -118.79,5.66l-118.9 3.05c-79.31,1.55 -158.56,5.75 -237.92,1.73 -317.28,-6.65 -635.07,-41.24 -946.92,-106.45 -311.51,-66.14 -617.59,-160.29 -910.2,-284.63 -292.93,-123.49 -574.04,-272.33 -841.27,-440.32 -266.56,-169.05 -520.06,-355.76 -762.25,-553.5 -484.09,-396.17 -922.09,-835.99 -1359.66,-1260.84l-164.63 -158.12 -82.46 -78.28c-14.07,-13.75 -27.06,-25.09 -39.81,-36.02l-38.6 -33.74c-104.53,-88.04 -221.3,-161.51 -346.13,-217.63 -249.55,-112.65 -531.31,-154.29 -803.6,-118.36 -136.81,17.77 -268.36,54.48 -397.78,108.83 -134.7,56.92 -266.03,122.2 -393.2,194.9 -126.73,73.44 -249.67,153.77 -366.53,241.84 -58.39,44.01 -115.46,89.74 -170.59,137.21 -13.87,11.81 -27.5,23.79 -40.95,35.94 -8.48,7.49 -39.2,35.85 -66.88,52.55 -57.06,35.95 -123.85,56.74 -190.92,58.38 -134.7,5.5 -269.35,-67.74 -337.01,-183.82 -70.21,-115.34 -72.37,-266.73 -3.7,-383.16 7.85,-14.88 18.13,-28.13 27.68,-41.82l16.06 -19.1 8.22 -9.39 5.33 -5.63 40.15 -41.96 80.49 -83.84c55.5,-55.23 108.67,-111.91 166.53,-165.47 226.22,-217.95 471.31,-419.84 732.85,-596.76 522.85,-356.7 1112.16,-602.1 1715.23,-766.22 605.25,-162.02 1227.88,-232.49 1847.62,-251.8 623.13,-13.82 1253.92,55.52 1849.45,245.96 297.81,93.4 585.93,213.3 864.41,348.79 278.75,135.32 547.31,287.11 813.87,438.82 266.57,151.85 531.66,303.58 803.71,440.19 271.84,136.78 552.94,254.7 845.31,337.44 291.99,83.18 594.19,131.93 898.98,144.21 304.9,12.39 611.44,-11.68 914.16,-60.52 -300.26,61.74 -606.66,99.25 -914.9,99.99 -38.49,-0.14 -77.1,1.5 -115.62,-0.09l-115.51 -6.13c-38.47,-2.52 -77.2,-3.04 -115.56,-7.2l-115.11 -13.08c-77.03,-7.19 -152.97,-21.65 -229.13,-35.23 -76.62,-11.59 -151.28,-31.95 -226.79,-48.99 -300.82,-73.64 -591.91,-183.81 -872.43,-312.69 -281.22,-127.96 -552.61,-274.04 -823.26,-417.64 -270.62,-143.66 -540.69,-285.92 -817.54,-410.34 -276.55,-124.89 -559.75,-232.09 -849.41,-314.77 -578.66,-170.38 -1184.77,-222.54 -1785.79,-195.59l-452.7 34.56c-37.79,2.13 -75.3,6.87 -112.71,12.19l-112.31 14.86 -224.54 29.62 -56.11 7.55 -55.54 10.57 -111.09 20.87 -222.14 41.36c-73.75,14.96 -146.16,35.28 -219.31,52.62 -72.75,18.74 -146.4,34.42 -218.34,55.64 -575.86,167.3 -1130.06,409.63 -1616.17,753.4 -243.52,170.82 -470.3,363.83 -682.22,574.82 -53.82,51.56 -104.79,107.55 -157.56,160.84l-77.94 82.83 -38.93 41.52 -4.51 4.84 -1.08 1.57c-0.76,1.02 -1.64,1.95 -2.57,2.83 -0.77,2.4 -3.12,3.86 -3.73,6.26 -9.85,16.31 -8.36,39.64 1.72,55.18 10.3,16.89 29.49,26.25 48.32,25.13 9.59,-0.24 18.44,-3.67 26.1,-8.55 -2.57,3.87 39.89,-35.95 67.59,-59.87 60.5,-53.2 122.66,-104.01 186.17,-152.91 127.07,-97.75 260.35,-186.79 398.06,-268.44 138.2,-80.87 281.13,-153.78 428.21,-217.67 152.46,-66.15 318.02,-114.67 485.1,-137.75 335.06,-47.68 683.14,-0.11 993.86,136.33 155.41,67.95 301.44,157.77 432.46,265.88l48.39 41.45c16.41,13.94 32.33,27.78 45.82,40.7l85.13 79.22 167.68 159.83c443.31,427.82 873.98,856.66 1341.01,1236.14 233.39,189.25 475.21,365.87 727.02,524.46 252.41,157.47 515.45,295.41 787.96,409.24 272.19,114.66 555.31,200.48 843.53,260.73 288.23,60.59 582.31,94.19 877.91,101.21 73.83,4.15 147.83,0.18 221.77,-1l110.94 -2.42c36.95,-0.98 74.04,-0.63 110.81,-4.87l221.1 -18.93 55.29 -4.67c18.39,-1.81 36.62,-5.2 54.94,-7.73l109.78 -16.34c147.05,-17.83 291.25,-52.23 436.23,-82.16 72.15,-16.62 143.13,-38.26 214.78,-57.05l107.24 -29.25 105.55 -35.24c283.1,-88.84 556.79,-207.51 822.84,-340.8 65.88,-34.78 133.44,-66.21 197.96,-103.6l194.28 -110.97c126.8,-78.73 254.67,-156.03 376.66,-242.69 493.82,-337.63 947.41,-736.97 1359.82,-1175.29 206.22,-219.28 402.01,-448.81 586.95,-686.61 91.98,-119.24 182.15,-239.96 267.8,-363.46 43.09,-61.55 29.63,-39.61 70.52,-102.23l-88.74 1.16c-71.06,0.52 -142.11,1.79 -213.16,1.48l-213.03 -13.77c-282.99,-25.88 -565.54,-75.02 -835.65,-162.72 -68.74,-18.22 -134.8,-43.81 -201.33,-68.08 -66.31,-24.73 -133.67,-47.03 -197.64,-76.96 -64.6,-28.46 -129.66,-55.99 -193.73,-85.3l-188.4 -95.04c-248.01,-131.94 -485.52,-280.08 -713.05,-439.58 -453.85,-320.9 -873.36,-677.25 -1291.84,-1026.23 -209.25,-174.74 -419.93,-345.49 -635.5,-508.5 -215.07,-163.68 -437.3,-315.86 -668.43,-451.23 -231.09,-134.8 -470.54,-255.88 -722.16,-342.65 -250.98,-87.66 -510.34,-151.17 -775.1,-180.85 -264.11,-24.35 -535.19,-23.55 -803.15,-1.46 -268.2,22.05 -534.83,66.72 -795.88,134.52 -522.61,134.46 -1021.94,361.29 -1474.98,660.4 -113.05,75.13 -223.78,154.02 -331.06,237.57 -107.95,82.72 -211.87,170.81 -312.82,262.2 -201.37,183.3 -391.55,380.76 -555.32,599.67z"/>
 </g>
</svg>
