<?xml version="1.0" encoding="UTF-8" standalone="no"?>
<svg
   xmlns:dc="http://purl.org/dc/elements/1.1/"
   xmlns:cc="http://creativecommons.org/ns#"
   xmlns:rdf="http://www.w3.org/1999/02/22-rdf-syntax-ns#"
   xmlns:svg="http://www.w3.org/2000/svg"
   xmlns="http://www.w3.org/2000/svg"
   xmlns:sodipodi="http://sodipodi.sourceforge.net/DTD/sodipodi-0.dtd"
   xmlns:inkscape="http://www.inkscape.org/namespaces/inkscape"
   version="1.1"
   id="Capa_1"
   x="0px"
   y="0px"
   viewBox="0 0 935.28 445.54"
   style="enable-background:new 0 0 935.28 445.54;"
   xml:space="preserve"
   sodipodi:docname="logo_bec.svg"
   inkscape:version="1.0.2-2 (e86c870879, 2021-01-15)"><metadata
   id="metadata17"><rdf:RDF><cc:Work
       rdf:about=""><dc:format>image/svg+xml</dc:format><dc:type
         rdf:resource="http://purl.org/dc/dcmitype/StillImage" /><dc:title></dc:title></cc:Work></rdf:RDF></metadata><defs
   id="defs15" /><sodipodi:namedview
   pagecolor="#ffffff"
   bordercolor="#666666"
   borderopacity="1"
   objecttolerance="10"
   gridtolerance="10"
   guidetolerance="10"
   inkscape:pageopacity="0"
   inkscape:pageshadow="2"
   inkscape:window-width="820"
   inkscape:window-height="480"
   id="namedview13"
   showgrid="false"
   inkscape:zoom="1.0927209"
   inkscape:cx="467.64001"
   inkscape:cy="222.77"
   inkscape:window-x="0"
   inkscape:window-y="0"
   inkscape:window-maximized="0"
   inkscape:current-layer="Capa_1" />
<path
   d="M43.79,41.62c0,21.34,0,42.69,0,64.03c63.09,0,126.18,0,189.28,0c1.39-0.06,2.77-0.13,4.16-0.19  c2.64,0.04,6.44,0.33,10.8,1.54c3.33,0.93,11.48,3.31,18.13,10.41c8.17,8.74,9.12,19.35,9.64,25.26c0.4,4.55,0.95,10.68-1.74,17.94  c-4.42,11.95-14.15,17.66-16.39,18.9c-5.47,3.02-10.55,3.87-17.36,5.01c-5.54,0.93-10.22,1.14-13.5,1.16c-60.36,0-120.73,0-181.09,0  c0,21.28,0,42.56,0,63.84c61.39,0,122.79,0,184.18,0c1.16,0,2.33,0,3.49,0c3.84-0.16,9.94,0.03,16.95,2.31  c3.07,1,12.1,4.29,20.25,12.92c2.29,2.43,7.04,7.56,10.03,15.81c1.45,4.01,4.67,14.75,0.77,27.39  c-3.76,12.19-11.91,18.95-15.43,21.79c0,0-10.3,8.31-26.81,11.19c-5.68,0.99-11.96,1.16-11.96,1.16c-1.88,0.05-3.47,0.03-4.63,0  c-59.01,0-118.03,0-177.04,0c0,21.86,0,43.72,0,65.59c70.07,0,140.14,0,210.21,0c3.15,0,6.3,0,9.45,0c3.2,0,7.73-0.14,13.11-0.79  c8.86-1.05,22.43-2.8,37.03-11.19c13.37-7.68,21.8-17.59,26.42-24.11c8.7-12.29,11.73-23.62,13.69-31.24  c4.63-17.99,3.42-32.53,2.7-40.31c-1.13-12.31-2.23-24.19-9.45-37.8c0,0-11.33-21.35-33.36-33.36c-7.93-4.32-16.15-6.82-16.87-7.04  c-6.8-2.03-12.86-2.92-15.82-3.34c-1.67-0.24-3.08-0.4-4.07-0.51c1.46-0.08,3.49-0.23,5.9-0.49c2.65-0.29,11.31-1.29,19.77-4.05  c3.64-1.19,13.62-4.54,23.14-12.44c11.14-9.24,15.97-20,19.57-28.25c1.91-4.38,8.79-21.05,8.1-43.97  c-0.31-10.41-0.82-27.38-11.57-45.13c-11.13-18.37-26.76-26.9-34.71-31.24c-4.83-2.64-15.07-8.1-29.31-10.03  c-0.84-0.11-1.53-0.19-1.98-0.24C199.58,41.97,121.68,41.8,43.79,41.62z"
   id="path2" />
<rect
   x="356.21"
   y="41.62"
   width="251.1"
   height="64.41"
   id="rect4" />
<rect
   x="356.21"
   y="185.1"
   width="194.3"
   height="64.41"
   id="rect6" />
<rect
   x="356.21"
   y="343.26"
   width="251.1"
   height="64.41"
   id="rect8" />
<path
   d="M831.41,160.23c24.69-0.9,49.37-1.8,74.06-2.7c0-2.25-0.1-5.53-0.58-9.45c-1.16-9.49-4.24-18.3-7.78-27.64  c-5.79-15.3-10.04-21.73-13.86-27.8c-1.74-2.76-9.3-14.51-23.87-27.1c-5.24-4.53-19.58-16.21-41.46-24.49  c-22.39-8.48-40.71-8.87-59.01-9.26c-14.73-0.31-33.49-0.57-56.89,5.98c-9.12,2.55-25.22,7.2-43.2,19.09  c-19.28,12.76-30.38,27.02-36.26,34.71c-13.42,17.56-19.85,33.31-24.11,43.97c-8.88,22.21-11.74,40.28-13.89,54.39  c-2.48,16.31-5.3,34.84-2.7,59.4c0.57,5.36,2.89,25.19,11.96,49.56c3.66,9.86,10.47,27.76,25.07,47.83  c6.55,8.99,17.59,23.91,37.03,37.8c3.79,2.71,21,14.74,47.06,22.56c4.63,1.39,24.92,7.27,52.46,7.14c10.42-0.05,29.97-0.3,53.81-8.1  c8.8-2.88,24.23-8.07,41.08-20.44c12.76-9.37,21.13-19.04,25.46-24.49c7.66-9.67,11.99-17.94,15.62-24.88  c3.77-7.21,9.66-18.47,11.76-28.74c0.02-0.08,1.23-4.86,3.28-15.09c0.32-1.61,0.67-3.51,0.77-5.16c-25.65-1.29-51.3-2.57-76.95-3.86  c-0.06,1.85-0.25,4.45-0.77,7.52c-0.56,3.25-2.09,10.5-7.71,20.44c-4.28,7.58-9.89,17.5-21.41,25.84  c-12.77,9.25-25.49,11.25-32.98,12.34c-15.82,2.3-28.21-0.56-35.49-2.31c-6.2-1.49-13.88-3.41-22.76-8.49  c-11.91-6.81-18.71-15.17-24.11-21.79c-2.86-3.51-10.35-13.14-16.59-27.58c-5.9-13.65-7.67-24.65-9.45-35.68  c-2.87-17.79-2.76-32.47-2.31-41.46c1.05-21.37,5.3-37.07,6.36-40.89c3.19-11.42,6.61-23.29,15.43-36.64  c8.03-12.16,16.31-19.13,18.13-20.64c10.03-8.3,19.47-12.27,23.14-13.69c11.57-4.49,21.11-5.17,27.96-5.59  c8.26-0.52,20.83-1.18,35.87,3.86c13.59,4.55,22.22,11.41,24.3,13.11c8.31,6.8,12.75,13.57,13.69,15.04  c4.74,7.39,6.67,13.95,7.14,15.62c1.28,4.59,1.85,9.05,2.12,11.19C831.16,156.33,831.32,158.58,831.41,160.23z"
   id="path10" />
</svg>
